<svg width="36" height="36" viewBox="0 0 36 36" fill="none" xmlns="http://www.w3.org/2000/svg">
<g id="bell_svgrepo.com">
<path id="Vector" d="M13.1277 26.1828H7.61002C5.56511 26.1828 4.54267 26.1828 4.32754 26.021C4.08586 25.8392 4.0268 25.7319 4.00063 25.427C3.97734 25.1556 4.60399 24.1106 5.85733 22.0208C7.15137 19.863 8.25017 16.7212 8.25017 12.2731C8.25017 9.81374 9.27738 7.45509 11.1058 5.71603C12.9343 3.97699 15.4142 3 18 3C20.5858 3 23.0656 3.97699 24.894 5.71603C26.7226 7.45509 27.7498 9.81374 27.7498 12.2731C27.7498 16.7212 28.8486 19.863 30.1427 22.0208C31.3959 24.1106 32.0226 25.1556 31.9994 25.427C31.9732 25.7319 31.9141 25.8392 31.6724 26.021C31.4573 26.1828 30.4349 26.1828 28.39 26.1828H22.8749M13.1277 26.1828L13.1251 27.8387C13.1251 30.5824 15.3077 32.8065 18 32.8065C20.6924 32.8065 22.8749 30.5824 22.8749 27.8387V26.1828M13.1277 26.1828H22.8749" stroke="#55198A" stroke-width="2" stroke-linecap="round" stroke-linejoin="round"/>
</g>
</svg>
