<svg width="150" height="100" viewBox="0 0 150 100" fill="none" xmlns="http://www.w3.org/2000/svg">
<rect width="150" height="100" rx="4" fill="white"/>
<path d="M53.3719 40.3619C53.1249 40.3619 52.9152 40.5412 52.8765 40.7854L50.0178 58.9147C50.0074 58.9809 50.0115 59.0486 50.0298 59.1131C50.048 59.1776 50.0801 59.2374 50.1236 59.2883C50.1672 59.3393 50.2213 59.3802 50.2822 59.4082C50.343 59.4362 50.4093 59.4508 50.4763 59.4508H53.8666C54.1132 59.4508 54.3233 59.2711 54.3619 59.0274L55.2017 53.7035C55.2399 53.4598 55.4501 53.2801 55.697 53.2801H58.7793C62.3808 53.2801 65.4379 50.6524 65.9964 47.0917C66.5594 43.501 63.7541 40.3697 59.7782 40.3619H53.3719ZM56.6675 44.4091H59.1337C61.164 44.4091 61.8252 45.6071 61.6161 46.9319C61.4071 48.2596 60.3802 49.2376 58.4162 49.2376H55.9061L56.6675 44.4091ZM72.8916 45.6415C72.0356 45.6447 71.0505 45.82 69.9447 46.2807C67.408 47.338 66.1898 49.5232 65.6725 51.1162C65.6725 51.1162 64.0259 55.9766 67.746 58.6468C67.746 58.6468 71.1962 61.2175 75.08 58.4884L75.013 58.9147C75.0026 58.9808 75.0067 59.0485 75.0249 59.1129C75.0431 59.1774 75.0751 59.2371 75.1186 59.288C75.1621 59.339 75.2161 59.3799 75.2769 59.408C75.3377 59.4361 75.4038 59.4507 75.4708 59.4508H78.6892C78.9361 59.4508 79.1459 59.2711 79.1845 59.0274L81.1422 46.6123C81.1527 46.5461 81.1487 46.4784 81.1306 46.4139C81.1124 46.3493 81.0804 46.2895 81.0369 46.2385C80.9934 46.1875 80.9394 46.1465 80.8785 46.1184C80.8177 46.0902 80.7515 46.0756 80.6844 46.0755H77.466C77.2191 46.0755 77.0089 46.2552 76.9707 46.4989L76.8654 47.1672C76.8654 47.1672 75.4602 45.6319 72.8916 45.6415ZM72.9969 49.5628C73.3664 49.5628 73.7045 49.6139 74.0078 49.7113C75.3964 50.1571 76.1837 51.4911 75.9559 52.9371C75.6749 54.7176 74.2147 56.0287 72.3421 56.0287C71.9728 56.0287 71.6348 55.978 71.3311 55.8806C69.9429 55.4348 69.1506 54.1007 69.3784 52.6547C69.6594 50.8742 71.1242 49.5628 72.9969 49.5628Z" fill="#003087"/>
<path d="M99.7183 40.3619C99.4714 40.3619 99.2616 40.5412 99.223 40.7854L96.3642 58.9147C96.3539 58.9809 96.3579 59.0486 96.3762 59.1131C96.3945 59.1776 96.4265 59.2374 96.4701 59.2883C96.5136 59.3393 96.5677 59.3802 96.6286 59.4082C96.6895 59.4362 96.7557 59.4508 96.8228 59.4508H100.213C100.46 59.4508 100.67 59.2711 100.708 59.0274L101.548 53.7035C101.586 53.4598 101.796 53.2801 102.043 53.2801H105.126C108.727 53.2801 111.784 50.6524 112.342 47.0917C112.905 43.501 110.101 40.3697 106.125 40.3619H99.7183ZM103.014 44.4091H105.48C107.51 44.4091 108.172 45.6071 107.963 46.9319C107.754 48.2596 106.727 49.2376 104.763 49.2376H102.253L103.014 44.4091ZM119.238 45.6415C118.382 45.6447 117.397 45.82 116.291 46.2807C113.754 47.338 112.536 49.5232 112.019 51.1162C112.019 51.1162 110.373 55.9766 114.093 58.6468C114.093 58.6468 117.542 61.2175 121.426 58.4884L121.359 58.9147C121.349 58.9809 121.353 59.0486 121.371 59.1131C121.39 59.1776 121.422 59.2374 121.465 59.2883C121.509 59.3393 121.563 59.3802 121.624 59.4082C121.685 59.4362 121.751 59.4508 121.818 59.4508H125.036C125.283 59.4508 125.493 59.2711 125.531 59.0274L127.49 46.6123C127.5 46.5461 127.496 46.4783 127.478 46.4137C127.46 46.3491 127.428 46.2893 127.384 46.2382C127.341 46.1872 127.287 46.1462 127.226 46.1181C127.165 46.0901 127.098 46.0755 127.031 46.0755H123.813C123.566 46.0755 123.356 46.2552 123.317 46.4989L123.212 47.1672C123.212 47.1672 121.806 45.6319 119.238 45.6415ZM119.343 49.5628C119.713 49.5628 120.051 49.6139 120.354 49.7113C121.742 50.1571 122.53 51.4911 122.302 52.9371C122.021 54.7176 120.561 56.0287 118.688 56.0287C118.319 56.0287 117.981 55.978 117.677 55.8806C116.289 55.4348 115.497 54.1007 115.725 52.6547C116.006 50.8742 117.47 49.5628 119.343 49.5628Z" fill="#0070E0"/>
<path d="M82.6695 46.0757C82.4143 46.0757 82.2329 46.3248 82.3109 46.5675L85.8393 57.5166L82.6489 62.6764C82.494 62.9269 82.6741 63.2504 82.9685 63.2504H86.7393C86.8471 63.2503 86.9531 63.2224 87.047 63.1694C87.1409 63.1164 87.2196 63.0401 87.2754 62.9478L97.1297 46.6461C97.281 46.3956 97.1003 46.0753 96.8076 46.0753H93.0372C92.9283 46.0754 92.8213 46.1038 92.7267 46.1578C92.6322 46.2118 92.5533 46.2895 92.4979 46.3832L88.619 52.932L86.65 46.4318C86.5859 46.2202 86.3906 46.0753 86.1699 46.0753L82.6695 46.0757Z" fill="#003087"/>
<path d="M131.146 40.3619C130.9 40.3619 130.69 40.5416 130.651 40.7854L127.791 58.914C127.781 58.9803 127.785 59.048 127.803 59.1126C127.821 59.1772 127.853 59.2371 127.897 59.2881C127.941 59.3391 127.995 59.3801 128.056 59.4082C128.117 59.4362 128.183 59.4508 128.25 59.4508H131.64C131.887 59.4508 132.097 59.2711 132.136 59.0274L134.994 40.898C135.005 40.8319 135.001 40.7642 134.982 40.6998C134.964 40.6354 134.932 40.5756 134.889 40.5247C134.845 40.4738 134.791 40.4328 134.73 40.4047C134.67 40.3767 134.603 40.362 134.537 40.3619H131.146Z" fill="#0070E0"/>
<path d="M25.1084 40.3619C24.89 40.3621 24.6788 40.4402 24.5128 40.5821C24.3468 40.724 24.2368 40.9204 24.2027 41.1361L22.6979 50.6804C22.768 50.2347 23.1521 49.9062 23.6035 49.9062H28.0132C32.4512 49.9062 36.217 46.6687 36.9051 42.2813C36.9563 41.9538 36.9853 41.6232 36.9919 41.2917C35.8641 40.7003 34.5392 40.3619 33.0875 40.3619H25.1084Z" fill="#001C64"/>
<path d="M36.9919 41.2921C36.9853 41.6236 36.9563 41.9542 36.9051 42.2818C36.2169 46.6691 32.4508 49.9066 28.0131 49.9066H23.6035C23.1524 49.9066 22.768 50.2347 22.6978 50.6808L21.3142 59.4512L20.4475 64.9532C20.4306 65.0595 20.4369 65.1683 20.4661 65.2719C20.4953 65.3755 20.5466 65.4715 20.6165 65.5534C20.6864 65.6352 20.7732 65.7009 20.871 65.746C20.9687 65.791 21.0751 65.8143 21.1827 65.8143H25.969C26.1874 65.8141 26.3986 65.736 26.5646 65.5941C26.7306 65.4522 26.8405 65.2558 26.8747 65.0401L28.1354 57.0439C28.1695 56.8281 28.2796 56.6315 28.4458 56.4896C28.6119 56.3477 28.8233 56.2697 29.0418 56.2697H31.8598C36.2977 56.2697 40.0636 53.0321 40.7517 48.6448C41.2403 45.531 39.672 42.6974 36.9919 41.2921Z" fill="#0070E0"/>
<path d="M19.6708 34C19.2198 34 18.8353 34.3281 18.7652 34.7735L15.0092 58.5902C14.938 59.0423 15.2874 59.4512 15.7452 59.4512H21.3149L22.6979 50.6808L24.2027 41.1366C24.2368 40.9209 24.3468 40.7244 24.5128 40.5825C24.6788 40.4406 24.89 40.3625 25.1084 40.3624H33.0875C34.5396 40.3624 35.8641 40.7011 36.9919 41.2921C37.0692 37.2978 33.7732 34 29.2416 34H19.6708Z" fill="#003087"/>
</svg>
