<svg width="32" height="32" viewBox="0 0 32 32" fill="none" xmlns="http://www.w3.org/2000/svg">
<path d="M26.6673 25.3333C26.6673 23.9188 26.1054 22.5623 25.1052 21.5621C24.105 20.5619 22.7485 20 21.334 20H10.6673C9.25283 20 7.89628 20.5619 6.89608 21.5621C5.89589 22.5623 5.33398 23.9188 5.33398 25.3333" stroke="#FF5400" stroke-width="2" stroke-linecap="round" stroke-linejoin="round"/>
<path d="M15.9993 15.6667C18.9449 15.6667 21.3327 13.2789 21.3327 10.3333C21.3327 7.38781 18.9449 5 15.9993 5C13.0538 5 10.666 7.38781 10.666 10.3333C10.666 13.2789 13.0538 15.6667 15.9993 15.6667Z" stroke="#FF5400" stroke-width="2" stroke-linecap="round" stroke-linejoin="round"/>
<path d="M31 15.5C31 23.4784 24.3144 30 16 30C7.68556 30 1 23.4784 1 15.5C1 7.52156 7.68556 1 16 1C24.3144 1 31 7.52156 31 15.5Z" stroke="#FF5400" stroke-width="2"/>
</svg>
