<svg width="150" height="100" viewBox="0 0 150 100" fill="none" xmlns="http://www.w3.org/2000/svg">
<rect width="150" height="100" rx="4" fill="white"/>
<path fill-rule="evenodd" clip-rule="evenodd" d="M125 50.5C125 43.3888 121.556 37.7777 114.972 37.7777C108.361 37.7777 104.361 43.3888 104.361 50.4444C104.361 58.8056 109.083 63.0278 115.861 63.0278C119.167 63.0278 121.667 62.2778 123.556 61.2222V55.6667C121.667 56.6111 119.5 57.1944 116.75 57.1944C114.056 57.1944 111.667 56.25 111.361 52.9722H124.944C124.944 52.6111 125 51.1666 125 50.5ZM111.278 47.8611C111.278 44.7222 113.194 43.4166 114.944 43.4166C116.639 43.4166 118.444 44.7222 118.444 47.8611H111.278Z" fill="#635BFF"/>
<path fill-rule="evenodd" clip-rule="evenodd" d="M93.6395 37.7777C90.9172 37.7777 89.1672 39.0555 88.195 39.9444L87.8339 38.2222H81.7228V70.6111L88.6672 69.1389L88.695 61.2778C89.695 62 91.1672 63.0278 93.6117 63.0278C98.5839 63.0278 103.112 59.0278 103.112 50.2222C103.084 42.1666 98.5006 37.7777 93.6395 37.7777ZM91.9728 56.9167C90.3339 56.9167 89.3617 56.3333 88.695 55.6111L88.6672 45.3055C89.3895 44.5 90.3895 43.9444 91.9728 43.9444C94.5006 43.9444 96.2506 46.7777 96.2506 50.4166C96.2506 54.1389 94.5284 56.9167 91.9728 56.9167Z" fill="#635BFF"/>
<path fill-rule="evenodd" clip-rule="evenodd" d="M72.167 36.1389L79.1392 34.6389V29L72.167 30.4722V36.1389Z" fill="#635BFF"/>
<path d="M79.1392 38.2504H72.167V62.556H79.1392V38.2504Z" fill="#635BFF"/>
<path fill-rule="evenodd" clip-rule="evenodd" d="M64.6948 40.3052L64.2504 38.2497H58.2504V62.5553H65.1948V46.083C66.8337 43.9441 69.6115 44.333 70.4726 44.6386V38.2497C69.5837 37.9163 66.3337 37.3052 64.6948 40.3052Z" fill="#635BFF"/>
<path fill-rule="evenodd" clip-rule="evenodd" d="M50.805 32.2223L44.0272 33.6667L43.9994 55.9168C43.9994 60.0279 47.0827 63.0557 51.1939 63.0557C53.4716 63.0557 55.1383 62.639 56.055 62.139V56.5001C55.1661 56.8612 50.7772 58.139 50.7772 54.0279V44.1668H56.055V38.2501H50.7772L50.805 32.2223Z" fill="#635BFF"/>
<path fill-rule="evenodd" clip-rule="evenodd" d="M32.0278 45.3055C32.0278 44.2222 32.9167 43.8055 34.3889 43.8055C36.5 43.8055 39.1667 44.4444 41.2778 45.5833V39.0555C38.9723 38.1388 36.6945 37.7777 34.3889 37.7777C28.75 37.7777 25 40.7222 25 45.6388C25 53.3055 35.5556 52.0833 35.5556 55.3889C35.5556 56.6666 34.4445 57.0833 32.8889 57.0833C30.5833 57.0833 27.6389 56.1389 25.3056 54.8611V61.4722C27.8889 62.5833 30.5 63.0556 32.8889 63.0556C38.6667 63.0556 42.6389 60.1944 42.6389 55.2222C42.6112 46.9444 32.0278 48.4166 32.0278 45.3055Z" fill="#635BFF"/>
</svg>
