<svg width="60" height="60" viewBox="0 0 60 60" fill="none" xmlns="http://www.w3.org/2000/svg">
<g clip-path="url(#clip0_585_22481)">
<path d="M22.4545 26.182L22.454 26.1815C22.0122 25.7737 21.6848 25.4729 21.3227 25.2676C20.9721 25.0688 20.5804 24.956 20.0117 24.956C19.4302 24.956 19.0304 25.07 18.6736 25.2707C18.3056 25.4777 17.9739 25.7811 17.527 26.1923C17.527 26.1923 17.5269 26.1923 17.5269 26.1924L17.3577 26.0084C16.6306 26.6825 15.6847 27.5189 14.2659 27.946L22.4545 26.182ZM22.4545 26.182L22.4668 26.1933C23.4995 27.1409 24.9649 28.4854 27.6706 28.4854C29.3419 28.4854 30.531 27.9614 31.4423 27.3333C31.0062 31.6546 27.3746 35.0442 22.9412 35.0442C18.7821 35.0442 15.3223 32.0565 14.5512 28.1171L22.4545 26.182ZM45.8491 21.9981L46.0833 22.0862L49.3868 23.3285L49.6206 23.4164L49.5329 23.6503L40.3827 48.0542C40.9143 48.3096 41.3881 48.6849 41.7683 49.1641C42.6354 50.2498 42.8608 51.6828 42.3831 52.9917L42.383 52.9919L41.3878 55.713C41.3877 55.713 41.3877 55.713 41.3877 55.7131C40.8076 57.3008 39.4725 58.4674 37.8174 58.8496L37.8171 58.8497C33.8719 59.7552 28.5895 60.2501 22.9412 60.2501C16.6928 60.2501 10.3214 58.9765 4.52407 56.5675L4.52368 56.5673L3.43309 56.112L3.27941 56.0479V55.8813V45.6001C3.27941 41.557 5.9897 37.9609 9.87399 36.8573C11.4156 36.4191 12.9844 36.0793 14.5643 35.8039C11.9933 33.4993 10.3383 30.1915 10.3383 26.4707V22.9413C10.3383 15.9915 15.9913 10.3384 22.9412 10.3384C29.891 10.3384 35.5441 15.9915 35.5441 22.9413V26.4707C35.5441 30.1982 33.8826 33.5096 31.308 35.8114C32.8296 36.0766 34.3552 36.3935 35.8654 36.8109L35.874 36.8133L35.874 36.8135L36.3328 36.9582L36.5783 37.0356L36.4938 37.2787L35.3362 40.6104L35.2591 40.8321L35.033 40.7692C30.9302 39.6286 26.9167 39.0847 22.9954 39.0702C22.9949 39.0702 22.9943 39.0703 22.9935 39.0704C22.9869 39.0711 22.9658 39.0737 22.9412 39.0737C22.9096 39.0737 22.8816 39.0703 22.8674 39.0685L22.8656 39.0683C22.849 39.0663 22.8489 39.0665 22.852 39.0666M45.8491 21.9981L22.8527 39.0666C22.8525 39.0666 22.8522 39.0666 22.852 39.0666M45.8491 21.9981L45.7612 22.2324L36.1238 47.9297C32.7757 48.2716 29.0775 48.4557 25.6142 48.3397C22.0934 48.2218 18.8341 47.7942 16.4339 46.9183L16.1993 46.8326L16.1134 47.0672L14.8994 50.3848L14.8134 50.6198L15.0484 50.7056C18.7264 52.0482 23.5662 52.4254 27.9845 52.4378C31.663 52.4481 35.0719 52.2051 37.3023 52.046C37.7305 52.0155 38.1153 51.9881 38.4502 51.9661L38.4655 51.9719L37.604 54.3272L37.6034 54.3289C37.4958 54.6298 37.2484 54.8472 36.9194 54.9209L36.9181 54.9212C33.2719 55.7592 28.305 56.2208 22.9412 56.2208C17.6607 56.2208 12.2863 55.228 7.30881 53.3409V45.6001C7.30881 43.3469 8.81615 41.3487 10.9779 40.7335L10.978 40.7335C14.8278 39.6351 18.7891 39.0632 22.852 39.0666M45.8491 21.9981L22.852 39.0666M60.25 -0.000244141V-0.250244L60 -0.250244L0 -0.250182L-0.25 -0.250181V-0.000181641V35.2939V35.5439H0H7.05878H7.30878V35.2939V31.7645V31.5145H7.05878H3.77938V3.77919H56.2206V31.5145H49.4118H49.1618V31.7645V35.2939V35.5439H49.4118H60H60.25V35.2939V-0.000244141ZM30.0916 23.2341L30.0912 23.2345C29.6512 23.6423 29.3265 23.9421 28.9678 24.1465C28.6209 24.3442 28.2338 24.456 27.6706 24.456C27.089 24.456 26.6892 24.3421 26.3324 24.1414C25.9644 23.9343 25.6327 23.6309 25.1858 23.2197L25.1852 23.2192C24.1621 22.2743 22.7029 20.9266 20.0117 20.9266C17.306 20.9266 15.8407 22.2713 14.808 23.2188L14.7957 23.2301L14.7954 23.2303C14.6432 23.3704 14.5024 23.4958 14.3677 23.6097V22.9414C14.3677 18.2158 18.2123 14.3678 22.9412 14.3678C27.3961 14.3678 31.0325 17.7989 31.4363 22.1566C30.9306 22.5045 30.4815 22.8743 30.0916 23.2341Z" fill="#55198A" stroke="#55198A" stroke-width="0.5"/>
</g>
<defs>
<clipPath id="clip0_585_22481">
<rect width="60" height="60" fill="white"/>
</clipPath>
</defs>
</svg>
