<svg width="52" height="69" viewBox="0 0 52 69" fill="none" xmlns="http://www.w3.org/2000/svg">
<g clip-path="url(#clip0_752_7405)">
<path d="M11.987 43.0667L31.5192 67.6664C33.0207 69.5575 36.4746 69.3278 38.0104 67.6664C41.7813 63.5872 45.5522 59.508 49.3231 55.4289C51.0135 53.6003 51.1231 50.77 49.3231 48.9469C42.0623 41.5928 34.8015 34.2386 27.5407 26.8844L21.9784 34.083C22.6777 34.5487 23.3628 35.0958 24.1004 35.4961C26.8639 36.9955 30.384 35.0994 33.1207 34.2438C38.3229 32.6174 43.5251 30.991 48.7274 29.3645C52.9981 28.0294 53.1828 21.782 48.7274 20.5252C33.74 16.2974 19.6793 9.59337 6.90687 0.697412C4.00023 -1.32706 -0.0302333 1.38127 0.000171004 4.65506C0.145583 20.3089 0.290976 35.9628 0.43637 51.6167C0.468482 55.073 4.31718 57.3522 7.34307 55.5743C10.1399 53.931 11.9601 51.2245 14.0271 48.7683C15.3416 47.2063 16.6732 45.6571 17.9712 44.0815C19.4527 42.2831 20.046 40.9816 19.6587 38.6072C19.2599 36.1622 16.2185 34.8006 14.0124 35.406C11.4101 36.1201 10.4066 38.5919 10.8066 41.0442L10.8629 41.3895L12.0433 36.93L6.40896 43.6254C5.03699 45.2558 4.18945 46.7896 2.70972 47.659L9.61642 51.6167C9.47102 35.9628 9.32561 20.3089 9.18022 4.65506L2.27354 8.61269C15.6537 17.9319 30.5897 24.9365 46.2869 29.3645V20.5252C39.2569 22.723 32.2269 24.9209 25.1968 27.1187L28.7337 27.5808L26.6117 26.1677C22.2022 23.2312 17.4557 29.7263 21.0494 33.3663C28.3103 40.7205 35.5711 48.0746 42.8319 55.4288V48.9469C39.061 53.0261 35.2901 57.1053 31.5192 61.1845H38.0104C31.4997 52.9846 24.989 44.7846 18.4783 36.5847C16.9369 34.6434 13.598 34.976 11.987 36.5847C10.0668 38.5021 10.4417 41.1204 11.987 43.0667Z" fill="#FF5400"/>
</g>
<defs>
<clipPath id="clip0_752_7405">
<rect width="52" height="69" fill="white"/>
</clipPath>
</defs>
</svg>
