<svg width="1500" height="1050" viewBox="0 0 1500 1050" fill="none" xmlns="http://www.w3.org/2000/svg">
<path d="M550.197 566.52L518.188 890.28" stroke="#66B0F0" stroke-width="6" stroke-miterlimit="10" stroke-linecap="round"/>
<path d="M680.488 566.52L712.498 890.28" stroke="#66B0F0" stroke-width="6" stroke-miterlimit="10" stroke-linecap="round"/>
<path d="M528.176 795.6C528.176 795.6 605.276 754.89 702.776 795.6" stroke="#66B0F0" stroke-width="6" stroke-miterlimit="10" stroke-linecap="round"/>
<path d="M698.579 566.52H536.099C525.299 566.52 516.539 557.76 516.539 546.96V538.8H718.139V546.93C718.139 557.76 709.379 566.52 698.579 566.52Z" fill="#D0F0E4" stroke="#66B0F0" stroke-width="6" stroke-miterlimit="10" stroke-linejoin="round"/>
<path d="M583.112 684.63L577.172 691.32C573.542 695.43 573.902 701.7 578.012 705.33C580.052 707.16 582.662 707.97 585.182 707.82C587.732 707.67 590.192 706.56 592.022 704.49L598.322 697.41C598.322 697.38 598.352 695.58 598.352 695.55C595.532 694.02 592.232 693.48 588.962 690.57C586.742 688.59 584.762 686.58 583.112 684.63Z" stroke="#9A3B82" stroke-width="3" stroke-miterlimit="10" stroke-linecap="round"/>
<path d="M557.041 697.89L585.691 671.64L619.021 683.58L585.961 731.19C583.321 735 578.041 735.9 574.261 733.2L558.391 721.74C550.531 716.01 549.841 704.46 557.041 697.89Z" fill="white" stroke="#FE5244" stroke-width="5" stroke-miterlimit="10"/>
<path d="M695.372 536.91C697.262 546.15 695.912 556.2 690.572 565.2L620.132 683.55C619.472 686.22 610.982 686.64 601.202 684.33C591.392 682.02 583.982 677.91 584.612 675.24L617.402 535.71C622.442 514.26 643.922 500.94 665.402 505.98C681.422 509.76 692.402 522.36 695.372 536.91Z" fill="#E57281"/>
<path d="M696.09 547.77C691.71 544.32 686.49 541.74 680.58 540.36C659.13 535.32 637.65 548.61 632.58 570.09L605.52 685.23C604.11 685.02 602.67 684.72 601.17 684.36C591.36 682.05 583.95 677.94 584.58 675.27L617.37 535.74C622.41 514.29 643.89 500.97 665.37 506.01C681.39 509.79 692.37 522.39 695.37 536.94C696.12 540.45 696.36 544.11 696.09 547.77Z" fill="#9A3B82"/>
<path d="M602.642 598.56L584.612 675.24C583.982 677.91 591.392 682.05 601.202 684.33C611.012 686.64 619.502 686.22 620.132 683.55L662.372 612.6L602.642 598.56Z" fill="#D82F25"/>
<path d="M662.371 612.6L602.641 598.56" stroke="white" stroke-width="6" stroke-miterlimit="10" stroke-linecap="round"/>
<path opacity="0.7" d="M600.629 607.92L657.239 621.24" stroke="white" stroke-width="6" stroke-miterlimit="10" stroke-linecap="round"/>
<path opacity="0.7" d="M598.109 618.6L651.269 631.11" stroke="white" stroke-width="6" stroke-miterlimit="10" stroke-linecap="round"/>
<path opacity="0.7" d="M595.59 629.31L645.3 640.98" stroke="white" stroke-width="6" stroke-miterlimit="10" stroke-linecap="round"/>
<path opacity="0.7" d="M593.102 639.99L639.332 650.85" stroke="white" stroke-width="6" stroke-miterlimit="10" stroke-linecap="round"/>
<path opacity="0.7" d="M590.582 650.67L633.392 660.72" stroke="white" stroke-width="6" stroke-miterlimit="10" stroke-linecap="round"/>
<path opacity="0.7" d="M588.059 661.35L627.419 670.59" stroke="white" stroke-width="6" stroke-miterlimit="10" stroke-linecap="round"/>
<path opacity="0.7" d="M585.539 672.03L621.899 680.58" stroke="white" stroke-width="6" stroke-miterlimit="10" stroke-linecap="round"/>
<path d="M619.74 733.59V542.13C619.74 520.08 601.86 502.23 579.84 502.23C552.87 502.23 533.67 528.39 541.77 554.13L583.26 685.47L577.2 721.2C575.61 730.74 581.28 740.01 590.49 742.92L602.01 746.58C610.77 749.34 619.74 742.8 619.74 733.59Z" fill="#E57281"/>
<path d="M619.742 603.69V685.47C619.742 688.23 611.582 690.54 601.502 690.54C591.452 690.54 583.262 688.2 583.262 685.44L557.492 603.69H619.742Z" fill="#FE5244"/>
<path d="M557.461 602.79H619.741L620.041 682.47" stroke="white" stroke-width="6" stroke-miterlimit="10" stroke-linecap="round"/>
<path d="M577.2 721.17C575.61 730.71 581.28 739.98 590.49 742.89L602.01 746.55C610.77 749.34 619.74 742.8 619.74 733.59L618.72 685.47C618.72 688.23 611.58 690.54 601.53 690.54C591.48 690.54 583.98 687.51 583.95 684.75L577.2 721.17Z" fill="white" stroke="#FE5244" stroke-width="5" stroke-miterlimit="10"/>
<path d="M609.809 696.48V705.42C609.809 710.91 605.369 715.35 599.879 715.35C597.149 715.35 594.659 714.24 592.859 712.44C591.059 710.64 589.949 708.15 589.949 705.42V695.94C589.949 695.91 589.949 695.91 589.949 695.88C593.099 696.6 597.119 697.05 601.469 697.05C604.499 697.05 607.319 696.84 609.809 696.48Z" fill="#FE5244"/>
<path d="M618.811 616.29H561.391" stroke="white" stroke-width="6" stroke-miterlimit="10" stroke-linecap="round"/>
<path d="M618.81 627.27H564.93" stroke="white" stroke-width="6" stroke-miterlimit="10" stroke-linecap="round"/>
<path d="M618.809 638.22H568.469" stroke="white" stroke-width="6" stroke-miterlimit="10" stroke-linecap="round"/>
<path d="M618.812 649.2H572.012" stroke="white" stroke-width="6" stroke-miterlimit="10" stroke-linecap="round"/>
<path d="M618.812 660.18H575.582" stroke="white" stroke-width="6" stroke-miterlimit="10" stroke-linecap="round"/>
<path d="M618.811 671.16H579.121" stroke="white" stroke-width="6" stroke-miterlimit="10" stroke-linecap="round"/>
<path d="M618.811 682.14H582.211" stroke="white" stroke-width="6" stroke-miterlimit="10" stroke-linecap="round"/>
<path d="M893.94 628.53H917.91C936.9 628.53 952.29 643.92 952.29 662.91V807.66C952.29 826.65 936.9 842.04 917.91 842.04H908.49C897.54 842.04 888.66 850.92 888.66 861.87" stroke="#66B0F0" stroke-width="6" stroke-miterlimit="10" stroke-linecap="round"/>
<path d="M889.561 890.28C899.005 890.28 906.661 882.624 906.661 873.18C906.661 863.736 899.005 856.08 889.561 856.08C880.117 856.08 872.461 863.736 872.461 873.18C872.461 882.624 880.117 890.28 889.561 890.28Z" fill="white" stroke="#66B0F0" stroke-width="6" stroke-miterlimit="10" stroke-linejoin="round"/>
<path d="M886.201 628.53H1032.87C1039.47 628.53 1044.81 623.19 1044.81 616.59V606.54C1044.81 599.94 1039.47 594.6 1032.87 594.6H886.201C878.611 594.6 872.461 600.75 872.461 608.34V614.76C872.461 622.38 878.611 628.53 886.201 628.53Z" fill="#D0F0E4" stroke="#66B0F0" stroke-width="6" stroke-miterlimit="10" stroke-linejoin="round"/>
<path d="M1023.42 628.53H999.45C980.46 628.53 965.07 643.92 965.07 662.91V807.66C965.07 826.65 980.46 842.04 999.45 842.04H1008.87C1019.82 842.04 1028.7 850.92 1028.7 861.87" stroke="#66B0F0" stroke-width="6" stroke-miterlimit="10" stroke-linecap="round"/>
<path d="M1027.83 890.28C1037.27 890.28 1044.93 882.624 1044.93 873.18C1044.93 863.736 1037.27 856.08 1027.83 856.08C1018.39 856.08 1010.73 863.736 1010.73 873.18C1010.73 882.624 1018.39 890.28 1027.83 890.28Z" fill="white" stroke="#66B0F0" stroke-width="6" stroke-miterlimit="10" stroke-linejoin="round"/>
<path d="M756.482 825.6L767.282 847.71C770.912 855.15 772.802 863.28 772.802 871.5V888.27C772.802 891.18 770.372 893.55 767.372 893.55H644.012C640.742 893.55 638.102 890.97 638.102 887.79V882.6C638.102 880.5 639.272 878.58 641.162 877.56C653.972 870.69 695.342 849.21 703.352 826.26L756.482 825.6Z" fill="white" stroke="#FFCF2D" stroke-width="6" stroke-miterlimit="10"/>
<path d="M772.05 862.56H762.39C753.45 862.56 745.14 867.09 740.46 874.5L736.35 881.04C733.89 884.94 729.54 887.31 724.86 887.31H638.16" fill="white"/>
<path d="M772.05 862.56H762.39C753.45 862.56 745.14 867.09 740.46 874.5L736.35 881.04C733.89 884.94 729.54 887.31 724.86 887.31H638.16" stroke="#FFCF2D" stroke-width="6" stroke-miterlimit="10"/>
<path d="M764.58 842.19C755.31 842.49 743.01 841.53 728.16 838.83C718.41 837.06 709.14 834.36 701.07 831.33C702 829.65 702.75 827.97 703.35 826.29L756.48 825.6L764.58 842.19Z" fill="#FFCF2D"/>
<path d="M677.638 855.27L687.418 839.76C691.078 833.97 687.028 826.38 680.188 826.2C674.008 826.02 669.538 832.11 671.578 837.96L677.638 855.27Z" stroke="#FE5244" stroke-width="6" stroke-miterlimit="10" stroke-linecap="round" stroke-linejoin="round"/>
<path d="M677.1 855.36L666.42 846.57C662.43 843.3 656.37 845.58 655.59 850.71C654.87 855.33 659.01 859.23 663.57 858.27L677.1 855.36Z" stroke="#FE5244" stroke-width="6" stroke-miterlimit="10" stroke-linecap="round" stroke-linejoin="round"/>
<path d="M676.141 854.91H700.411" stroke="#FE5244" stroke-width="6" stroke-miterlimit="10" stroke-linecap="round" stroke-linejoin="round"/>
<path d="M669.059 861.69H693.299" stroke="#FE5244" stroke-width="6" stroke-miterlimit="10" stroke-linecap="round" stroke-linejoin="round"/>
<path d="M687.031 847.8H710.671" stroke="#FE5244" stroke-width="6" stroke-miterlimit="10" stroke-linecap="round" stroke-linejoin="round"/>
<path d="M900.69 516.39L845.04 537.45L791.52 816.18C789.36 821.28 760.98 828.6 734.49 828.6C706.59 828.6 684 820.83 684 815.34L716.88 559.32C721.17 525.54 749.91 500.19 783.99 500.19H899.64L900.18 516.36L900.69 516.39Z" fill="white" stroke="#3FB1B5" stroke-width="6" stroke-miterlimit="10" stroke-linecap="round"/>
<path d="M732.961 828.54L765.421 575.79C769.651 542.43 799.891 516.81 849.661 516.81" stroke="#3FB1B5" stroke-width="6" stroke-miterlimit="10" stroke-linecap="round"/>
<path d="M874.863 513.39L814.953 696.6L791.613 621.96C777.213 574.23 803.163 513.39 874.863 513.39Z" fill="#3FB1B5"/>
<path d="M940.558 824.49L962.128 878.22C965.128 885.66 959.218 893.61 950.698 893.61H869.458C865.438 893.61 862.168 890.58 862.168 886.8V881.4C862.168 878.94 862.948 876.57 864.448 874.53L878.698 858.96C887.008 849.9 891.568 838.35 891.568 826.44V826.29L940.558 824.49Z" fill="white" stroke="#FFCF2D" stroke-width="6" stroke-miterlimit="10"/>
<path d="M867.449 871.35C871.949 869.25 876.899 868.14 881.939 868.14H908.009C912.629 868.14 917.189 869.07 921.389 870.87L930.929 874.92" fill="white"/>
<path d="M867.449 871.35C871.949 869.25 876.899 868.14 881.939 868.14H908.009C912.629 868.14 917.189 869.07 921.389 870.87L930.929 874.92" stroke="#FFCF2D" stroke-width="6" stroke-miterlimit="10"/>
<path d="M941.578 826.95C939.898 833.58 917.608 838.86 890.368 838.86H889.918C891.028 834.81 891.598 830.64 891.598 826.41V826.26L940.588 824.49L941.578 826.95Z" fill="#FFCF2D"/>
<path d="M899.16 851.34L915.57 851.19C922.35 851.1 926.46 843.69 922.95 837.9C919.77 832.65 912.33 832.23 908.58 837.09L899.16 851.34Z" stroke="#FE5244" stroke-width="6" stroke-miterlimit="10" stroke-linejoin="round"/>
<path d="M899.159 851.34L890.579 840.69C887.369 836.7 881.039 837.72 879.269 842.52C877.649 846.84 880.859 851.46 885.479 851.43L899.159 851.34Z" stroke="#FE5244" stroke-width="6" stroke-miterlimit="10" stroke-linejoin="round"/>
<path d="M890.039 857.46H925.589" stroke="#FE5244" stroke-width="6" stroke-miterlimit="10" stroke-linecap="round" stroke-linejoin="round"/>
<path d="M959.4 810.21C959.4 816.72 935.88 828.93 911.34 828.93C889.29 828.93 871.02 824.55 867.57 819L806.91 624.96C790.08 569.25 831.78 513.09 889.95 513.09H899.91L898.5 463.05H1023.06L1035.33 513.96C1045.23 555.06 1014.09 595.62 971.82 595.62H915.9L959.4 810.21Z" fill="white" stroke="#3FB1B5" stroke-width="6" stroke-miterlimit="10" stroke-linecap="round"/>
<path d="M920.73 828L863.4 644.58C842.79 585.03 865.92 553.83 920.91 553.83H971.04C986.91 553.83 999.78 540.96 999.78 525.09V463.17" stroke="#3FB1B5" stroke-width="6" stroke-miterlimit="10" stroke-linecap="round"/>
<path d="M1206.21 538.8H276.418C272.758 538.8 271.378 534 274.468 532.05L438.868 452.07H1051.17L1207.89 533.13C1210.47 534.84 1209.27 538.8 1206.21 538.8Z" fill="white" stroke="#66B0F0" stroke-width="6" stroke-miterlimit="10" stroke-linejoin="round"/>
<path d="M1181.4 529.89H300.059C295.979 529.89 294.419 524.52 297.899 522.33L439.769 452.97H1049.76L1183.65 522.39C1187.01 524.61 1185.45 529.89 1181.4 529.89Z" fill="#D0F0E4"/>
<path d="M324.749 538.8L263.699 890.28" stroke="#66B0F0" stroke-width="6" stroke-miterlimit="10" stroke-linecap="round"/>
<path d="M356.578 538.8L417.628 890.28" stroke="#66B0F0" stroke-width="6" stroke-miterlimit="10" stroke-linecap="round"/>
<path d="M1123.56 538.8L1062.51 890.28" stroke="#66B0F0" stroke-width="6" stroke-miterlimit="10" stroke-linecap="round"/>
<path d="M1155.39 538.8L1216.44 890.28" stroke="#66B0F0" stroke-width="6" stroke-miterlimit="10" stroke-linecap="round"/>
<path d="M437.819 439.26L429.179 500.43C428.669 504.06 425.579 506.73 421.919 506.73H405.029C401.369 506.73 398.279 504.03 397.769 500.43L389.129 439.26C389.129 444.75 400.019 449.19 413.459 449.19C426.929 449.19 437.819 444.72 437.819 439.26Z" fill="white" stroke="#66B0F0" stroke-width="6" stroke-miterlimit="10" stroke-linejoin="round"/>
<path d="M432.389 445.8L424.679 499.95C424.109 504 420.599 507.03 416.519 507.03H410.729C406.649 507.03 403.139 504 402.569 499.95L394.859 445.95C395.459 446.22 396.119 446.46 396.779 446.7L404.339 499.71C404.759 502.62 407.099 504.87 409.979 505.2C410.219 505.23 410.459 505.26 410.729 505.26H416.519C416.879 505.26 417.239 505.23 417.569 505.17C420.299 504.72 422.489 502.53 422.879 499.71L430.439 446.58C431.159 446.34 431.789 446.07 432.389 445.8Z" fill="#66B0F0"/>
<path d="M424.439 448.2L417.569 505.17L417.479 505.95C417.419 506.4 417.029 506.73 416.579 506.73C416.549 506.73 416.519 506.73 416.459 506.73C415.949 506.67 415.619 506.22 415.679 505.74L415.739 505.26L422.579 448.53C423.239 448.41 423.839 448.29 424.439 448.2Z" fill="#66B0F0"/>
<path d="M411.089 506.73C411.059 506.73 411.029 506.73 410.969 506.73C410.519 506.73 410.129 506.4 410.069 505.95L409.979 505.2L403.109 448.32C403.709 448.44 404.339 448.53 404.969 448.62L411.809 505.26L411.869 505.74C411.929 506.22 411.569 506.67 411.089 506.73Z" fill="#66B0F0"/>
<path d="M438.689 439.26C438.689 441.78 436.319 444.06 432.419 445.83C431.819 446.1 431.159 446.37 430.499 446.61C428.699 447.24 426.689 447.81 424.469 448.23C423.869 448.35 423.239 448.44 422.609 448.56C419.999 448.95 417.149 449.19 414.179 449.22C413.939 449.22 413.729 449.22 413.489 449.22C413.159 449.22 412.829 449.22 412.499 449.22C409.859 449.19 407.339 448.98 404.999 448.65C404.369 448.56 403.769 448.47 403.139 448.35C400.829 447.93 398.699 447.39 396.809 446.73C396.149 446.49 395.489 446.25 394.889 445.98C390.779 444.21 388.289 441.87 388.289 439.29C388.289 439.08 388.319 438.87 388.349 438.66C389.189 433.47 400.109 429.39 413.489 429.39C426.869 429.39 437.819 433.5 438.629 438.66C438.659 438.84 438.689 439.05 438.689 439.26Z" fill="#66B0F0"/>
<path d="M414.537 505.05C414.537 505.11 414.537 505.2 414.507 505.26C414.417 505.65 414.057 505.95 413.637 505.95C413.217 505.95 412.857 505.65 412.767 505.26C412.737 505.2 412.737 505.14 412.737 505.08L412.438 449.52C412.438 449.4 412.467 449.31 412.497 449.19C412.827 449.19 413.157 449.19 413.487 449.19C413.727 449.19 413.967 449.19 414.177 449.19C414.207 449.28 414.237 449.37 414.237 449.49L414.537 505.05Z" fill="#66B0F0"/>
<path d="M413.639 447.36C408.299 447.21 403.409 446.4 399.449 445.11L385.289 385.74H398.939L413.639 447.36Z" fill="#FFCF2D"/>
<path d="M400.709 393.24H395.129C394.709 393.24 394.379 392.91 394.379 392.49C394.379 392.07 394.709 391.74 395.129 391.74H400.349L400.709 393.24Z" fill="white"/>
<path d="M402.209 399.54H396.629C396.209 399.54 395.879 399.21 395.879 398.79C395.879 398.37 396.209 398.04 396.629 398.04H401.849L402.209 399.54Z" fill="white"/>
<path d="M403.709 405.84H398.129C397.709 405.84 397.379 405.51 397.379 405.09C397.379 404.67 397.709 404.34 398.129 404.34H403.349L403.709 405.84Z" fill="white"/>
<path d="M405.24 412.14H399.66C399.24 412.14 398.91 411.81 398.91 411.39C398.91 410.97 399.24 410.64 399.66 410.64H404.88L405.24 412.14Z" fill="white"/>
<path d="M406.74 418.44H401.16C400.74 418.44 400.41 418.11 400.41 417.69C400.41 417.27 400.74 416.94 401.16 416.94H406.38L406.74 418.44Z" fill="white"/>
<path d="M408.24 424.74H402.93C402.51 424.74 402.18 424.41 402.18 423.99C402.18 423.57 402.51 423.24 402.93 423.24H407.88L408.24 424.74Z" fill="white"/>
<path d="M409.739 431.04H404.129C403.709 431.04 403.379 430.71 403.379 430.29C403.379 429.87 403.709 429.54 404.129 429.54H409.379L409.739 431.04Z" fill="white"/>
<path d="M411.239 437.34H405.629C405.209 437.34 404.879 437.01 404.879 436.59C404.879 436.17 405.209 435.84 405.629 435.84H410.879L411.239 437.34Z" fill="white"/>
<path d="M412.738 443.61C412.678 443.64 412.618 443.64 412.528 443.64H406.828C406.408 443.64 406.078 443.31 406.078 442.89C406.078 442.47 406.408 442.14 406.828 442.14H412.378L412.738 443.61Z" fill="white"/>
<path d="M516.09 513.96L514.83 518.55C514.8 518.67 514.71 518.73 514.62 518.7L449.82 499.35C449.73 499.32 449.7 499.2 449.73 499.11L450.96 494.55C450.96 494.49 451.02 494.46 451.05 494.43C451.08 494.4 451.14 494.4 451.17 494.4L515.97 513.75C516 513.75 516.03 513.81 516.06 513.84C516.09 513.87 516.09 513.93 516.09 513.96Z" fill="#FE5244"/>
<path d="M451.918 494.67L450.598 499.56C450.508 499.89 450.238 500.1 449.968 500.04L448.498 499.59C448.258 499.53 448.108 499.17 448.198 498.84L449.518 493.95C449.608 493.62 449.878 493.41 450.148 493.47L451.618 493.92C451.858 493.98 452.008 494.31 451.918 494.67Z" fill="#FFCF2D"/>
<path d="M445.949 494.31L445.349 496.59C445.169 497.22 445.559 497.88 446.219 498.09L448.289 498.69L449.519 494.1L447.449 493.5C446.789 493.32 446.129 493.68 445.949 494.31Z" fill="#FE5244"/>
<path d="M515.91 513.93L517.86 515.91L519.36 517.44L517.32 517.92L514.68 518.52L515.91 513.93Z" fill="white"/>
<path d="M519.51 517.47C519.48 517.59 519.42 517.65 519.36 517.65L514.68 518.73C514.62 518.73 514.56 518.73 514.53 518.67C514.5 518.61 514.5 518.55 514.5 518.49L515.73 513.93C515.76 513.87 515.79 513.81 515.85 513.78C515.91 513.75 515.97 513.75 516 513.81L519.45 517.32C519.51 517.32 519.54 517.38 519.51 517.47ZM514.92 518.25L518.97 517.32L516 514.29L514.92 518.25Z" fill="#FE5244"/>
<path d="M517.856 515.91L519.356 517.44L517.316 517.92L517.856 515.91Z" fill="#F0E1D4"/>
<path d="M519.507 517.47C519.477 517.59 519.417 517.65 519.357 517.65L517.317 518.13C517.257 518.13 517.197 518.13 517.167 518.07C517.137 518.01 517.137 517.95 517.137 517.89L517.677 515.91C517.707 515.85 517.737 515.79 517.797 515.76C517.857 515.73 517.917 515.73 517.947 515.79L519.447 517.32C519.507 517.32 519.537 517.38 519.507 517.47Z" fill="#FE5244"/>
<path d="M424.621 407.49C424.621 407.67 424.621 407.88 424.591 408.06L419.701 447.06C417.751 447.27 415.741 447.39 413.641 447.39L416.041 407.22C416.191 404.97 418.051 403.2 420.331 403.2C422.731 403.2 424.621 405.15 424.621 407.49Z" fill="#FE5244"/>
<path d="M1100.1 772.5H1159.56C1161.42 765.84 1167.51 760.95 1174.77 760.95H1115.31C1108.05 760.95 1101.96 765.84 1100.1 772.5Z" fill="#3FB1B5"/>
<path d="M1115.82 761.91C1124.52 761.91 1131.6 768.99 1131.6 777.69V793.47H1191.06V777.69C1191.06 768.96 1183.98 761.91 1175.28 761.91H1115.82Z" fill="white" stroke="#3FB1B5" stroke-width="6" stroke-miterlimit="10" stroke-linecap="round"/>
<path d="M1221.48 771.27H1167.21L1170.51 786.33H1224.78L1221.48 771.27Z" fill="white" stroke="#FFCF2D" stroke-width="6" stroke-miterlimit="10"/>
<path d="M1249.35 890.25H1122.78C1132.95 890.25 1140.51 880.83 1138.29 870.9L1120.92 792.87C1120.08 789.03 1116.66 786.3 1112.73 786.3H1239.3C1243.23 786.3 1246.62 789.03 1247.49 792.87L1264.86 870.9C1267.08 880.83 1259.52 890.25 1249.35 890.25Z" fill="white" stroke="#FFCF2D" stroke-width="6" stroke-miterlimit="10"/>
<path d="M1215.6 787.53L1221.87 815.7C1225.5 831.96 1213.11 847.41 1196.46 847.41H1191.15C1171.17 847.41 1153.89 833.55 1149.54 814.05L1143.63 787.53" stroke="#D0F0E4" stroke-width="10" stroke-miterlimit="10"/>
<path d="M1221.9 787.23L1228.17 815.4C1231.8 831.66 1219.41 847.11 1202.76 847.11H1197.45C1177.47 847.11 1160.19 833.25 1155.84 813.75L1149.93 787.23" stroke="#FFCF2D" stroke-width="10" stroke-miterlimit="10" stroke-linecap="round"/>
<path d="M1122.78 890.25H1101.9C1091.73 890.25 1084.17 880.83 1086.39 870.9L1103.76 792.87C1104.6 789.03 1108.02 786.3 1111.95 786.3H1112.79C1116.72 786.3 1120.11 789.03 1120.98 792.87L1138.35 870.9C1140.51 880.83 1132.95 890.25 1122.78 890.25Z" fill="#FFCF2D" stroke="#FFCF2D" stroke-width="6" stroke-miterlimit="10"/>
<path d="M1112.73 786.33V872.19" stroke="white" stroke-width="6" stroke-miterlimit="10"/>
<path d="M1092.84 887.43L1112.7 871.95L1132.44 887.55" stroke="white" stroke-width="6" stroke-miterlimit="10" stroke-linecap="round"/>
<path d="M282.208 758.52C282.208 758.52 244.558 710.16 250.528 695.22C255.628 682.47 267.238 694.35 267.238 694.35L282.208 758.52Z" fill="#3FB1B5"/>
<path d="M309.898 809.46C309.898 809.46 349.108 766.26 348.208 750.72C347.308 735.18 333.118 742.47 333.118 742.47L309.898 809.46Z" fill="#3FB1B5"/>
<path d="M350.82 847.47C350.82 860.49 345.3 872.37 336.24 881.43C328.95 888.69 319.05 892.71 308.76 892.71H276.81C266.52 892.71 256.62 888.69 249.33 881.43C240.27 872.4 234.75 860.49 234.75 847.47C234.75 828.93 245.91 812.7 262.65 803.7H322.95C339.66 812.67 350.82 828.93 350.82 847.47Z" fill="#FFCF2D"/>
<path d="M292.8 813.84C309.849 813.84 323.67 810.173 323.67 805.65C323.67 801.127 309.849 797.46 292.8 797.46C275.751 797.46 261.93 801.127 261.93 805.65C261.93 810.173 275.751 813.84 292.8 813.84Z" fill="#3FB1B5"/>
<path d="M309.899 809.46C305.009 810.33 299.129 810.84 292.799 810.84C286.799 810.84 281.189 810.39 276.479 809.61C265.319 797.76 238.139 766.32 248.189 750.78C260.729 731.37 282.239 758.55 282.239 758.55C282.239 758.55 256.859 680.61 270.299 663.3C283.739 645.99 294.269 676.74 294.269 676.74C294.269 676.74 301.049 639.42 319.259 642.99C336.629 646.41 309.719 732.96 307.199 740.94C308.489 737.1 316.289 715.92 331.499 717.87C345.899 719.7 317.819 790.23 309.899 809.46Z" fill="white" stroke="#3FB1B5" stroke-width="6" stroke-miterlimit="10" stroke-linecap="round"/>
<path d="M319.231 642.96C319.231 642.96 293.551 714.18 292.801 810.84" stroke="#3FB1B5" stroke-width="6" stroke-miterlimit="10" stroke-linecap="round"/>
<path d="M294.238 676.71C295.618 684.45 300.868 718.92 298.198 736.53" stroke="#3FB1B5" stroke-width="6" stroke-miterlimit="10" stroke-linecap="round"/>
<path d="M331.472 717.84C331.472 717.84 302.192 755.52 298.922 810.66" stroke="#3FB1B5" stroke-width="6" stroke-miterlimit="10" stroke-linecap="round"/>
<path d="M251.039 747.21C251.039 747.21 286.019 769.38 286.619 810.69" stroke="#3FB1B5" stroke-width="6" stroke-miterlimit="10" stroke-linecap="round"/>
<path d="M263.311 736.74C266.691 736.74 269.431 734 269.431 730.62C269.431 727.24 266.691 724.5 263.311 724.5C259.931 724.5 257.191 727.24 257.191 730.62C257.191 734 259.931 736.74 263.311 736.74Z" stroke="#FFCF2D" stroke-width="6" stroke-miterlimit="10"/>
<path d="M249.148 727.5C250.706 727.5 251.968 726.237 251.968 724.68C251.968 723.122 250.706 721.86 249.148 721.86C247.591 721.86 246.328 723.122 246.328 724.68C246.328 726.237 247.591 727.5 249.148 727.5Z" stroke="#FFCF2D" stroke-width="6" stroke-miterlimit="10"/>
<path d="M253.199 798.42C254.756 798.42 256.019 797.157 256.019 795.6C256.019 794.043 254.756 792.78 253.199 792.78C251.641 792.78 250.379 794.043 250.379 795.6C250.379 797.157 251.641 798.42 253.199 798.42Z" stroke="#FFCF2D" stroke-width="6" stroke-miterlimit="10"/>
<path d="M328.261 711.3C331.641 711.3 334.381 708.56 334.381 705.18C334.381 701.8 331.641 699.06 328.261 699.06C324.881 699.06 322.141 701.8 322.141 705.18C322.141 708.56 324.881 711.3 328.261 711.3Z" stroke="#FFCF2D" stroke-width="6" stroke-miterlimit="10"/>
<path d="M330.058 688.68C331.616 688.68 332.878 687.417 332.878 685.86C332.878 684.303 331.616 683.04 330.058 683.04C328.501 683.04 327.238 684.303 327.238 685.86C327.238 687.417 328.501 688.68 330.058 688.68Z" stroke="#FFCF2D" stroke-width="6" stroke-miterlimit="10"/>
<path d="M340.289 711.3C341.846 711.3 343.109 710.037 343.109 708.48C343.109 706.923 341.846 705.66 340.289 705.66C338.731 705.66 337.469 706.923 337.469 708.48C337.469 710.037 338.731 711.3 340.289 711.3Z" stroke="#FFCF2D" stroke-width="6" stroke-miterlimit="10"/>
<path d="M960.931 274.86L1021.32 291.9C1047.75 299.13 1066.92 322.05 1069.32 349.35L1078.53 451.2H758.941L788.461 336.75C793.291 317.67 807.751 302.55 826.591 296.88L897.121 274.86H960.931Z" fill="#FE5244"/>
<path d="M776.91 442.41C778.517 442.41 779.82 441.107 779.82 439.5C779.82 437.893 778.517 436.59 776.91 436.59C775.303 436.59 774 437.893 774 439.5C774 441.107 775.303 442.41 776.91 442.41Z" fill="white"/>
<path d="M807.211 442.41C808.818 442.41 810.121 441.107 810.121 439.5C810.121 437.893 808.818 436.59 807.211 436.59C805.604 436.59 804.301 437.893 804.301 439.5C804.301 441.107 805.604 442.41 807.211 442.41Z" fill="white"/>
<path d="M837.512 442.41C839.119 442.41 840.422 441.107 840.422 439.5C840.422 437.893 839.119 436.59 837.512 436.59C835.904 436.59 834.602 437.893 834.602 439.5C834.602 441.107 835.904 442.41 837.512 442.41Z" fill="white"/>
<path d="M867.808 442.41C869.416 442.41 870.718 441.107 870.718 439.5C870.718 437.893 869.416 436.59 867.808 436.59C866.201 436.59 864.898 437.893 864.898 439.5C864.898 441.107 866.201 442.41 867.808 442.41Z" fill="white"/>
<path d="M898.109 442.41C899.716 442.41 901.019 441.107 901.019 439.5C901.019 437.893 899.716 436.59 898.109 436.59C896.502 436.59 895.199 437.893 895.199 439.5C895.199 441.107 896.502 442.41 898.109 442.41Z" fill="white"/>
<path d="M928.41 442.41C930.017 442.41 931.32 441.107 931.32 439.5C931.32 437.893 930.017 436.59 928.41 436.59C926.803 436.59 925.5 437.893 925.5 439.5C925.5 441.107 926.803 442.41 928.41 442.41Z" fill="white"/>
<path d="M958.711 442.41C960.318 442.41 961.621 441.107 961.621 439.5C961.621 437.893 960.318 436.59 958.711 436.59C957.104 436.59 955.801 437.893 955.801 439.5C955.801 441.107 957.104 442.41 958.711 442.41Z" fill="white"/>
<path d="M989.012 442.41C990.619 442.41 991.922 441.107 991.922 439.5C991.922 437.893 990.619 436.59 989.012 436.59C987.404 436.59 986.102 437.893 986.102 439.5C986.102 441.107 987.404 442.41 989.012 442.41Z" fill="white"/>
<path d="M1019.31 442.41C1020.92 442.41 1022.22 441.107 1022.22 439.5C1022.22 437.893 1020.92 436.59 1019.31 436.59C1017.7 436.59 1016.4 437.893 1016.4 439.5C1016.4 441.107 1017.7 442.41 1019.31 442.41Z" fill="white"/>
<path d="M1049.61 442.41C1051.22 442.41 1052.52 441.107 1052.52 439.5C1052.52 437.893 1051.22 436.59 1049.61 436.59C1048 436.59 1046.7 437.893 1046.7 439.5C1046.7 441.107 1048 442.41 1049.61 442.41Z" fill="white"/>
<path d="M792.512 422.01C794.119 422.01 795.422 420.707 795.422 419.1C795.422 417.493 794.119 416.19 792.512 416.19C790.904 416.19 789.602 417.493 789.602 419.1C789.602 420.707 790.904 422.01 792.512 422.01Z" fill="white"/>
<path d="M822.812 422.01C824.419 422.01 825.722 420.707 825.722 419.1C825.722 417.493 824.419 416.19 822.812 416.19C821.205 416.19 819.902 417.493 819.902 419.1C819.902 420.707 821.205 422.01 822.812 422.01Z" fill="white"/>
<path d="M853.113 422.01C854.72 422.01 856.023 420.707 856.023 419.1C856.023 417.493 854.72 416.19 853.113 416.19C851.506 416.19 850.203 417.493 850.203 419.1C850.203 420.707 851.506 422.01 853.113 422.01Z" fill="white"/>
<path d="M883.41 422.01C885.017 422.01 886.32 420.707 886.32 419.1C886.32 417.493 885.017 416.19 883.41 416.19C881.803 416.19 880.5 417.493 880.5 419.1C880.5 420.707 881.803 422.01 883.41 422.01Z" fill="white"/>
<path d="M913.711 422.01C915.318 422.01 916.621 420.707 916.621 419.1C916.621 417.493 915.318 416.19 913.711 416.19C912.104 416.19 910.801 417.493 910.801 419.1C910.801 420.707 912.104 422.01 913.711 422.01Z" fill="white"/>
<path d="M944.012 422.01C945.619 422.01 946.922 420.707 946.922 419.1C946.922 417.493 945.619 416.19 944.012 416.19C942.404 416.19 941.102 417.493 941.102 419.1C941.102 420.707 942.404 422.01 944.012 422.01Z" fill="white"/>
<path d="M974.312 422.01C975.919 422.01 977.222 420.707 977.222 419.1C977.222 417.493 975.919 416.19 974.312 416.19C972.705 416.19 971.402 417.493 971.402 419.1C971.402 420.707 972.705 422.01 974.312 422.01Z" fill="white"/>
<path d="M1004.61 422.01C1006.22 422.01 1007.52 420.707 1007.52 419.1C1007.52 417.493 1006.22 416.19 1004.61 416.19C1003.01 416.19 1001.7 417.493 1001.7 419.1C1001.7 420.707 1003.01 422.01 1004.61 422.01Z" fill="white"/>
<path d="M1034.91 422.01C1036.52 422.01 1037.82 420.707 1037.82 419.1C1037.82 417.493 1036.52 416.19 1034.91 416.19C1033.3 416.19 1032 417.493 1032 419.1C1032 420.707 1033.3 422.01 1034.91 422.01Z" fill="white"/>
<path d="M1065.21 422.01C1066.82 422.01 1068.12 420.707 1068.12 419.1C1068.12 417.493 1066.82 416.19 1065.21 416.19C1063.6 416.19 1062.3 417.493 1062.3 419.1C1062.3 420.707 1063.6 422.01 1065.21 422.01Z" fill="white"/>
<path d="M776.91 401.01C778.517 401.01 779.82 399.707 779.82 398.1C779.82 396.493 778.517 395.19 776.91 395.19C775.303 395.19 774 396.493 774 398.1C774 399.707 775.303 401.01 776.91 401.01Z" fill="white"/>
<path d="M807.211 401.01C808.818 401.01 810.121 399.707 810.121 398.1C810.121 396.493 808.818 395.19 807.211 395.19C805.604 395.19 804.301 396.493 804.301 398.1C804.301 399.707 805.604 401.01 807.211 401.01Z" fill="white"/>
<path d="M837.512 401.01C839.119 401.01 840.422 399.707 840.422 398.1C840.422 396.493 839.119 395.19 837.512 395.19C835.904 395.19 834.602 396.493 834.602 398.1C834.602 399.707 835.904 401.01 837.512 401.01Z" fill="white"/>
<path d="M867.808 401.01C869.416 401.01 870.718 399.707 870.718 398.1C870.718 396.493 869.416 395.19 867.808 395.19C866.201 395.19 864.898 396.493 864.898 398.1C864.898 399.707 866.201 401.01 867.808 401.01Z" fill="white"/>
<path d="M898.109 401.01C899.716 401.01 901.019 399.707 901.019 398.1C901.019 396.493 899.716 395.19 898.109 395.19C896.502 395.19 895.199 396.493 895.199 398.1C895.199 399.707 896.502 401.01 898.109 401.01Z" fill="white"/>
<path d="M928.41 401.01C930.017 401.01 931.32 399.707 931.32 398.1C931.32 396.493 930.017 395.19 928.41 395.19C926.803 395.19 925.5 396.493 925.5 398.1C925.5 399.707 926.803 401.01 928.41 401.01Z" fill="white"/>
<path d="M958.711 401.01C960.318 401.01 961.621 399.707 961.621 398.1C961.621 396.493 960.318 395.19 958.711 395.19C957.104 395.19 955.801 396.493 955.801 398.1C955.801 399.707 957.104 401.01 958.711 401.01Z" fill="white"/>
<path d="M989.012 401.01C990.619 401.01 991.922 399.707 991.922 398.1C991.922 396.493 990.619 395.19 989.012 395.19C987.404 395.19 986.102 396.493 986.102 398.1C986.102 399.707 987.404 401.01 989.012 401.01Z" fill="white"/>
<path d="M1019.31 401.01C1020.92 401.01 1022.22 399.707 1022.22 398.1C1022.22 396.493 1020.92 395.19 1019.31 395.19C1017.7 395.19 1016.4 396.493 1016.4 398.1C1016.4 399.707 1017.7 401.01 1019.31 401.01Z" fill="white"/>
<path d="M1049.61 401.01C1051.22 401.01 1052.52 399.707 1052.52 398.1C1052.52 396.493 1051.22 395.19 1049.61 395.19C1048 395.19 1046.7 396.493 1046.7 398.1C1046.7 399.707 1048 401.01 1049.61 401.01Z" fill="white"/>
<path d="M792.512 381.51C794.119 381.51 795.422 380.207 795.422 378.6C795.422 376.993 794.119 375.69 792.512 375.69C790.904 375.69 789.602 376.993 789.602 378.6C789.602 380.207 790.904 381.51 792.512 381.51Z" fill="white"/>
<path d="M822.812 381.51C824.419 381.51 825.722 380.207 825.722 378.6C825.722 376.993 824.419 375.69 822.812 375.69C821.205 375.69 819.902 376.993 819.902 378.6C819.902 380.207 821.205 381.51 822.812 381.51Z" fill="white"/>
<path d="M853.113 381.51C854.72 381.51 856.023 380.207 856.023 378.6C856.023 376.993 854.72 375.69 853.113 375.69C851.506 375.69 850.203 376.993 850.203 378.6C850.203 380.207 851.506 381.51 853.113 381.51Z" fill="white"/>
<path d="M883.41 381.51C885.017 381.51 886.32 380.207 886.32 378.6C886.32 376.993 885.017 375.69 883.41 375.69C881.803 375.69 880.5 376.993 880.5 378.6C880.5 380.207 881.803 381.51 883.41 381.51Z" fill="white"/>
<path d="M913.711 381.51C915.318 381.51 916.621 380.207 916.621 378.6C916.621 376.993 915.318 375.69 913.711 375.69C912.104 375.69 910.801 376.993 910.801 378.6C910.801 380.207 912.104 381.51 913.711 381.51Z" fill="white"/>
<path d="M944.012 381.51C945.619 381.51 946.922 380.207 946.922 378.6C946.922 376.993 945.619 375.69 944.012 375.69C942.404 375.69 941.102 376.993 941.102 378.6C941.102 380.207 942.404 381.51 944.012 381.51Z" fill="white"/>
<path d="M974.312 381.51C975.919 381.51 977.222 380.207 977.222 378.6C977.222 376.993 975.919 375.69 974.312 375.69C972.705 375.69 971.402 376.993 971.402 378.6C971.402 380.207 972.705 381.51 974.312 381.51Z" fill="white"/>
<path d="M1005.51 381.51C1007.12 381.51 1008.42 380.207 1008.42 378.6C1008.42 376.993 1007.12 375.69 1005.51 375.69C1003.9 375.69 1002.6 376.993 1002.6 378.6C1002.6 380.207 1003.9 381.51 1005.51 381.51Z" fill="white"/>
<path d="M1034.91 381.51C1036.52 381.51 1037.82 380.207 1037.82 378.6C1037.82 376.993 1036.52 375.69 1034.91 375.69C1033.3 375.69 1032 376.993 1032 378.6C1032 380.207 1033.3 381.51 1034.91 381.51Z" fill="white"/>
<path d="M1065.21 381.51C1066.82 381.51 1068.12 380.207 1068.12 378.6C1068.12 376.993 1066.82 375.69 1065.21 375.69C1063.6 375.69 1062.3 376.993 1062.3 378.6C1062.3 380.207 1063.6 381.51 1065.21 381.51Z" fill="white"/>
<path d="M807.211 361.41C808.818 361.41 810.121 360.107 810.121 358.5C810.121 356.893 808.818 355.59 807.211 355.59C805.604 355.59 804.301 356.893 804.301 358.5C804.301 360.107 805.604 361.41 807.211 361.41Z" fill="white"/>
<path d="M867.812 361.41C869.419 361.41 870.722 360.107 870.722 358.5C870.722 356.893 869.419 355.59 867.812 355.59C866.205 355.59 864.902 356.893 864.902 358.5C864.902 360.107 866.205 361.41 867.812 361.41Z" fill="white"/>
<path d="M898.109 361.41C899.716 361.41 901.019 360.107 901.019 358.5C901.019 356.893 899.716 355.59 898.109 355.59C896.502 355.59 895.199 356.893 895.199 358.5C895.199 360.107 896.502 361.41 898.109 361.41Z" fill="white"/>
<path d="M928.41 361.41C930.017 361.41 931.32 360.107 931.32 358.5C931.32 356.893 930.017 355.59 928.41 355.59C926.803 355.59 925.5 356.893 925.5 358.5C925.5 360.107 926.803 361.41 928.41 361.41Z" fill="white"/>
<path d="M958.711 361.41C960.318 361.41 961.621 360.107 961.621 358.5C961.621 356.893 960.318 355.59 958.711 355.59C957.104 355.59 955.801 356.893 955.801 358.5C955.801 360.107 957.104 361.41 958.711 361.41Z" fill="white"/>
<path d="M989.012 361.41C990.619 361.41 991.922 360.107 991.922 358.5C991.922 356.893 990.619 355.59 989.012 355.59C987.404 355.59 986.102 356.893 986.102 358.5C986.102 360.107 987.404 361.41 989.012 361.41Z" fill="white"/>
<path d="M1019.31 361.41C1020.92 361.41 1022.22 360.107 1022.22 358.5C1022.22 356.893 1020.92 355.59 1019.31 355.59C1017.71 355.59 1016.4 356.893 1016.4 358.5C1016.4 360.107 1017.71 361.41 1019.31 361.41Z" fill="white"/>
<path d="M1049.61 361.41C1051.22 361.41 1052.52 360.107 1052.52 358.5C1052.52 356.893 1051.22 355.59 1049.61 355.59C1048 355.59 1046.7 356.893 1046.7 358.5C1046.7 360.107 1048 361.41 1049.61 361.41Z" fill="white"/>
<path d="M792.512 341.61C794.119 341.61 795.422 340.307 795.422 338.7C795.422 337.093 794.119 335.79 792.512 335.79C790.904 335.79 789.602 337.093 789.602 338.7C789.602 340.307 790.904 341.61 792.512 341.61Z" fill="white"/>
<path d="M822.812 341.61C824.419 341.61 825.722 340.307 825.722 338.7C825.722 337.093 824.419 335.79 822.812 335.79C821.205 335.79 819.902 337.093 819.902 338.7C819.902 340.307 821.205 341.61 822.812 341.61Z" fill="white"/>
<path d="M853.113 341.61C854.72 341.61 856.023 340.307 856.023 338.7C856.023 337.093 854.72 335.79 853.113 335.79C851.506 335.79 850.203 337.093 850.203 338.7C850.203 340.307 851.506 341.61 853.113 341.61Z" fill="white"/>
<path d="M883.41 341.61C885.017 341.61 886.32 340.307 886.32 338.7C886.32 337.093 885.017 335.79 883.41 335.79C881.803 335.79 880.5 337.093 880.5 338.7C880.5 340.307 881.803 341.61 883.41 341.61Z" fill="white"/>
<path d="M913.711 341.61C915.318 341.61 916.621 340.307 916.621 338.7C916.621 337.093 915.318 335.79 913.711 335.79C912.104 335.79 910.801 337.093 910.801 338.7C910.801 340.307 912.104 341.61 913.711 341.61Z" fill="white"/>
<path d="M944.012 341.61C945.619 341.61 946.922 340.307 946.922 338.7C946.922 337.093 945.619 335.79 944.012 335.79C942.404 335.79 941.102 337.093 941.102 338.7C941.102 340.307 942.404 341.61 944.012 341.61Z" fill="white"/>
<path d="M974.312 341.61C975.919 341.61 977.222 340.307 977.222 338.7C977.222 337.093 975.919 335.79 974.312 335.79C972.705 335.79 971.402 337.093 971.402 338.7C971.402 340.307 972.705 341.61 974.312 341.61Z" fill="white"/>
<path d="M1004.61 341.61C1006.22 341.61 1007.52 340.307 1007.52 338.7C1007.52 337.093 1006.22 335.79 1004.61 335.79C1003.01 335.79 1001.7 337.093 1001.7 338.7C1001.7 340.307 1003.01 341.61 1004.61 341.61Z" fill="white"/>
<path d="M1034.91 341.61C1036.52 341.61 1037.82 340.307 1037.82 338.7C1037.82 337.093 1036.52 335.79 1034.91 335.79C1033.3 335.79 1032 337.093 1032 338.7C1032 340.307 1033.3 341.61 1034.91 341.61Z" fill="white"/>
<path d="M1063.71 341.61C1065.32 341.61 1066.62 340.307 1066.62 338.7C1066.62 337.093 1065.32 335.79 1063.71 335.79C1062.1 335.79 1060.8 337.093 1060.8 338.7C1060.8 340.307 1062.1 341.61 1063.71 341.61Z" fill="white"/>
<path d="M807.211 322.11C808.818 322.11 810.121 320.807 810.121 319.2C810.121 317.593 808.818 316.29 807.211 316.29C805.604 316.29 804.301 317.593 804.301 319.2C804.301 320.807 805.604 322.11 807.211 322.11Z" fill="white"/>
<path d="M837.512 322.11C839.119 322.11 840.422 320.807 840.422 319.2C840.422 317.593 839.119 316.29 837.512 316.29C835.904 316.29 834.602 317.593 834.602 319.2C834.602 320.807 835.904 322.11 837.512 322.11Z" fill="white"/>
<path d="M867.812 322.11C869.419 322.11 870.722 320.807 870.722 319.2C870.722 317.593 869.419 316.29 867.812 316.29C866.205 316.29 864.902 317.593 864.902 319.2C864.902 320.807 866.205 322.11 867.812 322.11Z" fill="white"/>
<path d="M898.109 322.11C899.716 322.11 901.019 320.807 901.019 319.2C901.019 317.593 899.716 316.29 898.109 316.29C896.502 316.29 895.199 317.593 895.199 319.2C895.199 320.807 896.502 322.11 898.109 322.11Z" fill="white"/>
<path d="M928.41 322.11C930.017 322.11 931.32 320.807 931.32 319.2C931.32 317.593 930.017 316.29 928.41 316.29C926.803 316.29 925.5 317.593 925.5 319.2C925.5 320.807 926.803 322.11 928.41 322.11Z" fill="white"/>
<path d="M958.711 322.11C960.318 322.11 961.621 320.807 961.621 319.2C961.621 317.593 960.318 316.29 958.711 316.29C957.104 316.29 955.801 317.593 955.801 319.2C955.801 320.807 957.104 322.11 958.711 322.11Z" fill="white"/>
<path d="M989.012 322.11C990.619 322.11 991.922 320.807 991.922 319.2C991.922 317.593 990.619 316.29 989.012 316.29C987.404 316.29 986.102 317.593 986.102 319.2C986.102 320.807 987.404 322.11 989.012 322.11Z" fill="white"/>
<path d="M1019.31 322.11C1020.92 322.11 1022.22 320.807 1022.22 319.2C1022.22 317.593 1020.92 316.29 1019.31 316.29C1017.71 316.29 1016.4 317.593 1016.4 319.2C1016.4 320.807 1017.71 322.11 1019.31 322.11Z" fill="white"/>
<path d="M1049.61 322.11C1051.22 322.11 1052.52 320.807 1052.52 319.2C1052.52 317.593 1051.22 316.29 1049.61 316.29C1048 316.29 1046.7 317.593 1046.7 319.2C1046.7 320.807 1048 322.11 1049.61 322.11Z" fill="white"/>
<path d="M898.109 285.51C899.716 285.51 901.019 284.207 901.019 282.6C901.019 280.993 899.716 279.69 898.109 279.69C896.502 279.69 895.199 280.993 895.199 282.6C895.199 284.207 896.502 285.51 898.109 285.51Z" fill="white"/>
<path d="M928.41 285.51C930.017 285.51 931.32 284.207 931.32 282.6C931.32 280.993 930.017 279.69 928.41 279.69C926.803 279.69 925.5 280.993 925.5 282.6C925.5 284.207 926.803 285.51 928.41 285.51Z" fill="white"/>
<path d="M958.711 285.51C960.318 285.51 961.621 284.207 961.621 282.6C961.621 280.993 960.318 279.69 958.711 279.69C957.104 279.69 955.801 280.993 955.801 282.6C955.801 284.207 957.104 285.51 958.711 285.51Z" fill="white"/>
<path d="M991.768 283.56C991.378 284.7 990.298 285.51 989.008 285.51C987.418 285.51 986.098 284.22 986.098 282.6C986.098 282.39 986.128 282.18 986.158 281.97L991.768 283.56Z" fill="white"/>
<path d="M822.808 303.81C824.416 303.81 825.718 302.507 825.718 300.9C825.718 299.293 824.416 297.99 822.808 297.99C821.201 297.99 819.898 299.293 819.898 300.9C819.898 302.507 821.201 303.81 822.808 303.81Z" fill="white"/>
<path d="M853.109 303.81C854.716 303.81 856.019 302.507 856.019 300.9C856.019 299.293 854.716 297.99 853.109 297.99C851.502 297.99 850.199 299.293 850.199 300.9C850.199 302.507 851.502 303.81 853.109 303.81Z" fill="white"/>
<path d="M880.527 299.94C882.134 299.94 883.437 298.637 883.437 297.03C883.437 295.423 882.134 294.12 880.527 294.12C878.92 294.12 877.617 295.423 877.617 297.03C877.617 298.637 878.92 299.94 880.527 299.94Z" fill="white"/>
<path d="M913.707 303.81C915.314 303.81 916.617 302.507 916.617 300.9C916.617 299.293 915.314 297.99 913.707 297.99C912.1 297.99 910.797 299.293 910.797 300.9C910.797 302.507 912.1 303.81 913.707 303.81Z" fill="white"/>
<path d="M944.008 303.81C945.615 303.81 946.918 302.507 946.918 300.9C946.918 299.293 945.615 297.99 944.008 297.99C942.4 297.99 941.098 299.293 941.098 300.9C941.098 302.507 942.4 303.81 944.008 303.81Z" fill="white"/>
<path d="M974.308 303.81C975.916 303.81 977.218 302.507 977.218 300.9C977.218 299.293 975.916 297.99 974.308 297.99C972.701 297.99 971.398 299.293 971.398 300.9C971.398 302.507 972.701 303.81 974.308 303.81Z" fill="white"/>
<path d="M1004.61 303.81C1006.22 303.81 1007.52 302.507 1007.52 300.9C1007.52 299.293 1006.22 297.99 1004.61 297.99C1003 297.99 1001.7 299.293 1001.7 300.9C1001.7 302.507 1003 303.81 1004.61 303.81Z" fill="white"/>
<path d="M1034.91 303.81C1036.52 303.81 1037.82 302.507 1037.82 300.9C1037.82 299.293 1036.52 297.99 1034.91 297.99C1033.3 297.99 1032 299.293 1032 300.9C1032 302.507 1033.3 303.81 1034.91 303.81Z" fill="white"/>
<path d="M1008.96 452.07L1002.36 362.28" stroke="white" stroke-width="6" stroke-miterlimit="10" stroke-linecap="round"/>
<path d="M852.809 452.07V424.86L846.569 421.2C836.039 415.02 830.759 402.75 833.489 390.87L843.059 349.11" stroke="white" stroke-width="6" stroke-miterlimit="10" stroke-linecap="round"/>
<path d="M895.59 274.44L915.57 332.31L961.92 274.44" stroke="white" stroke-width="6" stroke-miterlimit="10" stroke-linecap="round"/>
<path d="M948.93 290.19L968.55 312.93L988.86 283.98" stroke="white" stroke-width="6" stroke-miterlimit="10" stroke-linecap="round"/>
<path d="M901.17 290.19L878.28 309.63L864.93 284.4" stroke="white" stroke-width="6" stroke-miterlimit="10" stroke-linecap="round"/>
<path d="M834.539 349.11L838.649 368.28" stroke="white" stroke-width="6" stroke-miterlimit="10" stroke-linecap="round"/>
<path d="M918.75 529.89H836.52L800.16 473.1H882.39L918.75 529.89Z" fill="#FFCF2D"/>
<path d="M869.16 517.56H786.9L750.57 460.8H832.8L869.16 517.56Z" fill="white" stroke="#3FB1B5" stroke-width="6" stroke-miterlimit="10" stroke-linejoin="round"/>
<path d="M768.18 469.08L771.24 470.4C773.28 471.27 775.11 471.3 775.8 470.46L776.91 469.05C777.57 468.21 779.43 468.21 781.47 469.11L784.53 470.43C786.57 471.3 788.4 471.33 789.09 470.49L790.32 468.9C790.98 468.06 792.84 468.06 794.88 468.96L798.93 470.73C800.97 471.6 802.8 471.63 803.49 470.79L804.96 468.93C805.62 468.09 807.48 468.09 809.52 468.99L814.17 471.03C816.21 471.9 818.04 471.93 818.73 471.09L820.32 469.05" stroke="#3FB1B5" stroke-width="5" stroke-miterlimit="10" stroke-linecap="round"/>
<path d="M780.629 482.4C782.669 483.27 784.499 483.3 785.189 482.46L786.299 481.05C786.959 480.21 788.819 480.21 790.859 481.11L793.919 482.43C795.959 483.3 797.789 483.33 798.479 482.49L799.709 480.9C800.369 480.06 802.229 480.06 804.269 480.96L808.319 482.73C810.359 483.6 812.189 483.63 812.879 482.79L814.349 480.93C815.009 480.09 816.869 480.09 818.909 480.99L823.559 483.03C825.599 483.9 827.429 483.93 828.119 483.09L829.709 481.05" stroke="#3FB1B5" stroke-width="5" stroke-miterlimit="10" stroke-linecap="round"/>
<path d="M786.961 493.05L790.021 494.37C792.061 495.24 793.891 495.27 794.581 494.43L795.691 493.02C796.351 492.18 798.211 492.18 800.251 493.08L803.311 494.4C805.351 495.27 807.181 495.3 807.871 494.46L809.101 492.87C809.761 492.03 811.621 492.03 813.661 492.93L817.711 494.7C819.751 495.57 821.581 495.6 822.271 494.76L823.741 492.9C824.401 492.06 826.261 492.06 828.301 492.96L832.951 495C834.991 495.87 836.821 495.9 837.511 495.06L839.101 493.02" stroke="#3FB1B5" stroke-width="5" stroke-miterlimit="10" stroke-linecap="round"/>
<path d="M796.352 505.05L799.412 506.37C801.452 507.24 803.282 507.27 803.972 506.43L805.082 505.02C805.742 504.18 807.602 504.18 809.642 505.08L812.702 506.4C814.742 507.27 816.572 507.3 817.262 506.46L818.492 504.87C819.152 504.03 821.012 504.03 823.052 504.93L827.102 506.7C829.142 507.57 830.972 507.6 831.662 506.76L833.132 504.9C833.792 504.06 835.652 504.06 837.692 504.96L842.342 507C844.382 507.87 846.212 507.9 846.902 507.06L848.492 505.02" stroke="#3FB1B5" stroke-width="5" stroke-miterlimit="10" stroke-linecap="round"/>
<path d="M885.299 484.92H1043.04C1063.92 484.92 1080.27 466.95 1078.29 446.19C1076.31 425.34 1056.78 410.73 1036.23 414.75L854.699 440.04C847.829 441 841.799 445.17 838.529 451.29L822.449 481.17C821.879 481.92 821.489 482.79 821.249 483.69L815.219 507H818.609C823.859 507 828.719 504.09 831.179 499.44L834.209 493.77L869.099 497.55C875.639 498.36 881.849 493.89 884.189 487.77L885.299 484.92Z" fill="#A0505A"/>
<path d="M834.539 492.75L845.069 470.94" stroke="#73325A" stroke-width="6" stroke-miterlimit="10" stroke-linecap="round"/>
<path d="M848.578 494.13L859.108 472.32" stroke="#73325A" stroke-width="6" stroke-miterlimit="10" stroke-linecap="round"/>
<path d="M862.32 495.84L872.82 474.03" stroke="#73325A" stroke-width="6" stroke-miterlimit="10" stroke-linecap="round"/>
<path d="M885.301 484.92L890.101 470.61" stroke="#73325A" stroke-width="6" stroke-miterlimit="10" stroke-linecap="round"/>
<path d="M924.122 172.14C924.122 172.14 944.762 159.18 964.922 175.53C983.942 190.98 975.062 221.43 968.102 216.33C962.132 211.98 1008.66 197.13 1023.24 231.6C1039.77 270.66 1002.54 292.83 960.092 273.51H898.502L833.012 293.94C833.012 293.94 799.742 277.02 817.832 244.02C834.542 213.57 874.472 224.43 869.972 231.96C863.642 242.52 836.582 209.1 855.602 177.54C875.702 144.18 921.362 156.6 924.122 172.14Z" fill="white" stroke="#FFCF2D" stroke-width="6" stroke-miterlimit="10"/>
<path d="M937.412 215.67C937.412 215.67 918.722 206.79 922.172 188.58C922.172 188.58 913.623 213.12 885.933 212.94C873.213 212.85 873.753 199.65 880.533 193.47" stroke="#FFCF2D" stroke-width="6" stroke-miterlimit="10" stroke-linecap="round" stroke-linejoin="round"/>
<path d="M960.602 274.77L944.852 232.95H900.092L896.582 274.77L915.872 330.21L960.602 274.77Z" fill="#A0505A"/>
<path d="M924.452 265.92L900.842 286.77L896.582 274.77L900.092 232.95H939.752V233.73C939.722 246.24 934.112 258.06 924.452 265.92Z" fill="#73325A"/>
<path d="M955.081 224.82V226.5C955.081 231.06 951.361 234.78 946.801 234.78H937.801C936.121 247.53 925.201 257.4 912.001 257.4C904.801 257.4 898.291 254.49 893.581 249.78C888.871 245.07 885.961 238.56 885.961 231.36V213.84C913.651 214.05 921.601 191.28 921.601 191.28C919.771 208.38 935.371 215.73 937.741 216.72V216.54H946.801C951.361 216.54 955.081 220.26 955.081 224.82Z" fill="#A0505A"/>
<path d="M916.531 208.86C916.531 208.86 922.981 208.98 927.331 213.6" stroke="#73325A" stroke-width="6" stroke-miterlimit="10" stroke-linecap="round"/>
<path d="M915.182 229.65C916.192 229.65 917.012 228.213 917.012 226.44C917.012 224.667 916.192 223.23 915.182 223.23C914.171 223.23 913.352 224.667 913.352 226.44C913.352 228.213 914.171 229.65 915.182 229.65Z" fill="#73325A"/>
<path d="M890.193 229.65C891.204 229.65 892.023 228.213 892.023 226.44C892.023 224.667 891.204 223.23 890.193 223.23C889.183 223.23 888.363 224.667 888.363 226.44C888.363 228.213 889.183 229.65 890.193 229.65Z" fill="#73325A"/>
<path d="M901.262 241.89C901.262 241.89 906.182 244.26 910.652 239.91" stroke="#73325A" stroke-width="6" stroke-miterlimit="10" stroke-linecap="round"/>
<path d="M940.113 228.09C940.113 224.19 943.293 221.01 947.193 221.01" stroke="#73325A" stroke-width="6" stroke-miterlimit="10" stroke-linecap="round"/>
<path d="M888.812 209.16C888.812 209.16 882.362 209.28 878.012 213.9" stroke="#73325A" stroke-width="6" stroke-miterlimit="10" stroke-linecap="round"/>
<path d="M889.2 238.08C894.883 238.08 899.49 232.667 899.49 225.99C899.49 219.313 894.883 213.9 889.2 213.9C883.517 213.9 878.91 219.313 878.91 225.99C878.91 232.667 883.517 238.08 889.2 238.08Z" stroke="#FE5244" stroke-width="6" stroke-miterlimit="10" stroke-linejoin="round"/>
<path d="M916.829 238.08C922.512 238.08 927.119 232.667 927.119 225.99C927.119 219.313 922.512 213.9 916.829 213.9C911.146 213.9 906.539 219.313 906.539 225.99C906.539 232.667 911.146 238.08 916.829 238.08Z" stroke="#FE5244" stroke-width="6" stroke-miterlimit="10" stroke-linejoin="round"/>
<path d="M906.568 225.99C906.568 225.99 902.878 223.35 899.488 225.99" stroke="#FE5244" stroke-width="6" stroke-miterlimit="10" stroke-linejoin="round"/>
<path d="M582.573 356.34H640.953C669.513 356.34 697.023 367.26 717.783 386.85L752.103 419.22L701.103 433.47L691.293 424.23C687.723 420.9 681.903 422.64 680.763 427.38L676.503 445.32H562.773L557.613 415.23C556.203 410.34 549.903 408.99 546.633 412.89L542.643 417.66L464.613 416.22L516.003 378.24C535.263 364.02 558.603 356.34 582.573 356.34Z" fill="#9A3B82"/>
<path d="M586.022 356.34L616.682 409.68L645.572 356.49C648.962 356.67 652.322 357 655.652 357.48C654.332 365.46 647.762 413.16 675.152 445.32H561.422C561.422 445.32 584.312 399.45 575.132 356.49L586.022 356.34Z" fill="#3FB1B5"/>
<path d="M515.703 505.98H739.623L696.033 445.35H562.773L515.703 505.98Z" stroke="#9A3B82" stroke-width="3" stroke-miterlimit="10" stroke-linecap="round"/>
<path d="M739.623 505.98H515.703L562.773 445.35H696.033L739.623 505.98Z" fill="white" stroke="#3FB1B5" stroke-width="6" stroke-miterlimit="10" stroke-linejoin="round"/>
<path d="M627.663 505.98H515.703C582.243 465.54 627.663 505.98 627.663 505.98Z" fill="#3FB1B5"/>
<path d="M627.664 505.98H739.624C673.084 465.54 627.664 505.98 627.664 505.98Z" fill="#3FB1B5"/>
<path d="M627.664 505.98V445.35" stroke="#3FB1B5" stroke-width="6" stroke-miterlimit="10" stroke-linecap="round"/>
<path d="M678.99 464.64L711.15 419.31C716.07 413.04 723.6 409.35 731.58 409.35C745.92 409.35 757.56 420.99 757.56 435.33V436.23C757.56 445.47 752.639 454.02 744.66 458.67L701.7 483.27L689.819 503.7C687.599 507.51 683.55 509.85 679.14 509.85H641.609C641.609 509.85 641.49 503.04 648.99 500.76C656.49 498.48 657.75 491.07 657.75 491.07C657.75 491.07 654.029 493.95 646.619 491.22L660.9 470.73C663.54 466.92 667.89 464.64 672.54 464.64H678.99Z" fill="#E57281"/>
<path d="M690.749 487.68L681.299 503.91C679.529 506.94 676.319 508.8 672.809 508.8" stroke="#9A3B82" stroke-width="4" stroke-miterlimit="10" stroke-linecap="round"/>
<path d="M680.639 487.68L671.189 503.91C669.419 506.94 666.209 508.8 662.699 508.8" stroke="#9A3B82" stroke-width="4" stroke-miterlimit="10" stroke-linecap="round"/>
<path d="M670.53 487.68L661.08 503.91C659.31 506.94 656.1 508.8 652.59 508.8" stroke="#9A3B82" stroke-width="4" stroke-miterlimit="10" stroke-linecap="round"/>
<path d="M678.988 464.64H685.798" stroke="#9A3B82" stroke-width="4" stroke-miterlimit="10" stroke-linecap="round"/>
<path d="M631.441 437.01C631.141 437.19 631.141 437.64 631.441 437.82C632.341 438.33 632.941 439.32 632.941 440.46V443.34C632.941 444.48 632.341 445.44 631.441 445.98C631.141 446.16 631.141 446.61 631.441 446.79C632.341 447.3 632.941 448.29 632.941 449.43V452.31C632.941 453.45 632.341 454.41 631.441 454.95C631.141 455.13 631.141 455.58 631.441 455.76C632.341 456.27 632.941 457.26 632.941 458.4V461.28C632.941 462.96 631.621 464.31 629.971 464.31H487.561C468.841 464.31 453.481 448.44 457.351 429.72C460.291 415.5 472.561 405.81 486.181 405.81C488.371 405.81 490.621 406.08 492.871 406.59L594.421 428.55H629.521C631.411 428.55 632.941 430.11 632.941 432.03V434.43C632.941 435.48 632.341 436.47 631.441 437.01Z" fill="#E57281"/>
<path d="M630.991 437.4H615.031" stroke="#9A3B82" stroke-width="4" stroke-miterlimit="10" stroke-linecap="round"/>
<path d="M630.991 446.34H615.031" stroke="#9A3B82" stroke-width="4" stroke-miterlimit="10" stroke-linecap="round"/>
<path d="M630.991 455.28H615.031" stroke="#9A3B82" stroke-width="4" stroke-miterlimit="10" stroke-linecap="round"/>
<path d="M603.303 428.61C603.303 428.61 580.743 395.52 586.953 394.92C593.163 394.32 609.123 428.46 609.123 428.46L603.303 428.61Z" fill="white"/>
<path d="M659.068 353.91C659.128 356.16 658.228 358.2 656.758 359.67C655.318 361.11 653.338 361.98 651.178 361.98H644.428C643.258 374.58 632.698 384.42 619.798 384.42H612.568C599.698 384.42 589.108 374.58 587.938 361.98H581.158C578.968 361.98 576.988 361.11 575.578 359.67C574.108 358.2 573.208 356.16 573.268 353.91C573.358 349.59 577.018 346.17 581.338 346.17H587.848V341.7C587.848 336.15 592.348 331.68 597.868 331.68H634.498C640.048 331.68 644.518 336.18 644.518 341.7V346.17H650.998C655.348 346.17 658.978 349.59 659.068 353.91Z" fill="#E57281"/>
<path d="M647.012 358.5C647.012 355.08 649.772 352.32 653.192 352.32" stroke="#9A3B82" stroke-width="5" stroke-miterlimit="10" stroke-linecap="round"/>
<path d="M624.422 359.34C624.422 359.34 630.692 358.08 634.442 361.74" stroke="#9A3B82" stroke-width="5" stroke-miterlimit="10" stroke-linecap="round"/>
<path d="M596.402 360.27C596.402 360.27 600.482 356.88 606.122 359.37C609.482 360.84 611.192 366.51 611.702 373.08C611.702 373.08 614.912 376.5 620.312 373.08" stroke="#9A3B82" stroke-width="5" stroke-miterlimit="10" stroke-linecap="round"/>
<path d="M584.731 358.5C584.731 355.08 581.971 352.32 578.551 352.32" stroke="#9A3B82" stroke-width="5" stroke-miterlimit="10" stroke-linecap="round"/>
<path d="M603.87 369.9C604.5 369.9 605.01 368.919 605.01 367.71C605.01 366.5 604.5 365.52 603.87 365.52C603.241 365.52 602.73 366.5 602.73 367.71C602.73 368.919 603.241 369.9 603.87 369.9Z" fill="#9A3B82"/>
<path d="M627.57 369.9C628.199 369.9 628.71 368.919 628.71 367.71C628.71 366.5 628.199 365.52 627.57 365.52C626.94 365.52 626.43 366.5 626.43 367.71C626.43 368.919 626.94 369.9 627.57 369.9Z" fill="#9A3B82"/>
<path d="M690.419 330.21C684.059 341.73 669.57 345.9 658.08 339.54C656.13 338.46 654.39 337.14 652.86 335.67C651.51 341.94 649.35 346.23 649.35 346.23C649.35 346.23 646.32 347.46 641.01 348.72C641.67 346.56 643.23 338.88 635.88 331.77C635.88 331.77 640.98 341.88 633.54 349.83C633.39 349.98 633.239 350.16 633.119 350.31C620.639 352.32 602.16 353.07 581.94 346.23C581.94 346.23 574.35 333.75 578.1 320.64C575.88 321.3 573.51 321.66 571.05 321.66C557.37 321.66 546.27 310.56 546.27 296.88C546.27 283.2 557.37 272.1 571.05 272.1C584.73 272.1 595.83 283.2 595.83 296.88C595.83 298.47 595.68 300.03 595.38 301.56C613.38 292.2 638.67 297.93 648.24 308.16C648.39 307.83 648.569 307.53 648.719 307.23C655.079 295.71 669.57 291.54 681.06 297.9C692.58 304.2 696.779 318.69 690.419 330.21Z" fill="#FFCF2D"/>
<path d="M607.559 284.76C605.759 283.35 604.019 282.96 602.339 283.65C599.879 284.64 597.779 287.97 596.129 293.58C595.889 294.33 596.009 294.18 595.829 294.9C595.799 290.31 594.569 288.06 592.829 286.47C591.569 285.33 589.919 285 587.939 285.51C586.859 285.81 586.079 286.47 585.779 287.46C585.119 289.44 586.199 292.68 589.109 297.33C590.609 299.73 592.169 301.86 592.949 302.85L577.019 320.61C576.689 320.97 576.719 321.54 577.079 321.87C577.259 322.02 577.469 322.11 577.679 322.11C577.919 322.11 578.159 322.02 578.339 321.81L594.749 303.51L594.779 303.48L595.859 302.25C596.459 301.86 599.339 300.09 602.249 297.69C606.719 294.03 609.089 290.91 609.239 288.36C609.359 286.95 608.759 285.72 607.559 284.76ZM587.489 288.03C587.579 287.76 587.759 287.43 588.419 287.25C588.869 287.13 589.289 287.07 589.679 287.07C590.459 287.07 591.089 287.31 591.629 287.79C594.029 289.98 593.909 296.58 593.489 300.63C590.369 296.37 586.739 290.34 587.489 288.03ZM607.469 288.27C607.259 291.84 600.539 297.03 596.519 299.73C597.419 294.93 599.609 286.68 603.029 285.3C603.329 285.18 603.659 285.12 603.989 285.12C604.769 285.12 605.579 285.48 606.449 286.17C607.199 286.77 607.529 287.43 607.469 288.27Z" fill="#FE5244"/>
<path d="M661.707 295.35C660.207 293.91 658.617 293.4 656.937 293.82C654.597 294.39 652.257 296.82 650.007 301.05C649.557 301.89 649.137 302.73 648.807 303.51C648.747 302.37 648.657 301.08 648.477 299.73C647.787 294.24 646.317 290.79 644.127 289.5C642.597 288.6 640.767 288.72 638.757 289.92C637.377 290.73 636.597 291.9 636.507 293.34C636.147 298.5 644.667 305.79 646.977 307.68L652.647 336C652.737 336.42 653.097 336.72 653.517 336.72C653.577 336.72 653.637 336.72 653.697 336.69C654.177 336.6 654.507 336.12 654.387 335.64L648.867 308.04C649.767 307.68 652.407 306.54 655.137 305.04C659.817 302.46 662.277 300.21 662.667 298.17C662.787 297.42 662.727 296.37 661.707 295.35ZM646.857 305.25C643.407 302.25 638.037 296.79 638.247 293.43C638.307 292.59 638.727 291.93 639.627 291.42C640.497 290.91 641.247 290.67 641.907 290.67C642.357 290.67 642.777 290.79 643.167 291C644.817 291.96 646.047 295.14 646.647 299.91C646.887 301.86 646.977 303.72 647.007 305.1C646.977 305.13 646.917 305.19 646.857 305.25ZM660.897 297.81C660.447 300.15 654.477 303.54 649.797 305.64C651.327 301.98 654.267 296.31 657.357 295.56C657.567 295.5 657.777 295.47 658.017 295.47C658.827 295.47 659.637 295.86 660.477 296.64C660.957 297.15 660.957 297.54 660.897 297.81Z" fill="#FE5244"/>
</svg>
